<svg width="69" height="35" viewBox="0 0 69 35" fill="none" xmlns="http://www.w3.org/2000/svg">
<path d="M17.5 1.25491L31.5907 17.6714L31.5 1.17302L17.5 1.25491Z" fill="#385658" stroke="#385658"/>
<path d="M14 33.6662L1 17.1617V33.6662H14Z" fill="#385658" stroke="#385658"/>
<path d="M1 10.9725C1.4 1.48245 8.5 0.485302 12 1.17299C16 6.15872 25.4 17.8838 31 24.8982C31 32.7378 23.6667 34.01 20 33.6662C16.1667 29.1962 7 18.3995 1 10.9725Z" fill="#5A898D" stroke="#5A898D"/>
<path d="M50 1H37V34H50V1Z" fill="white" stroke="white"/>
<path d="M53.5 34V1H61C68.5 7.5 68.5 12.5 68.5 17C68.5 27 63.5 32.5 61 34H53.5Z" fill="white" stroke="white"/>
</svg>
